<svg id="Capa_1" data-name="Capa 1" xmlns="http://www.w3.org/2000/svg" viewBox="0 0 335.8 110.5"><defs><style>.cls-1{isolation:isolate;}.cls-2,.cls-3{fill:#4e4c4c;}.cls-3{font-size:21.03px;font-family:Poppins-Regular, Poppins;}</style></defs><g class="cls-1"><path class="cls-2" d="M55.6,30.6,36.4,84.8H19.9L.7,30.6h14L28.1,71.5,41.6,30.6Z" transform="translate(-0.7 -20.8)"/><path class="cls-2" d="M62.1,35.2a6.53,6.53,0,0,1-2.2-5.1A6.39,6.39,0,0,1,62.1,25a8,8,0,0,1,5.7-2,8.16,8.16,0,0,1,5.6,2,7,7,0,0,1,0,10.2,7.71,7.71,0,0,1-5.6,2A7.65,7.65,0,0,1,62.1,35.2Zm12.2,6.5v43H61.1v-43Z" transform="translate(-0.7 -20.8)"/><path class="cls-2" d="M97.1,27.7V84.8H83.9V27.7Z" transform="translate(-0.7 -20.8)"/><path class="cls-2" d="M119.8,27.7V84.8H106.6V27.7Z" transform="translate(-0.7 -20.8)"/><path class="cls-2" d="M129.3,51.5a18.93,18.93,0,0,1,6.8-7.7,17.85,17.85,0,0,1,9.6-2.7,16,16,0,0,1,8,1.9,13.26,13.26,0,0,1,5.3,4.9V41.8h13.2v43H159V78.7a15.1,15.1,0,0,1-5.4,4.9,17.18,17.18,0,0,1-8,1.9A17.78,17.78,0,0,1,129.2,75a25.81,25.81,0,0,1-2.5-11.7A27,27,0,0,1,129.3,51.5Zm27,4a9.3,9.3,0,0,0-13.4-.1,10.88,10.88,0,0,0-2.7,7.8,10.88,10.88,0,0,0,2.7,7.8,9,9,0,0,0,6.7,2.9,9.17,9.17,0,0,0,6.7-2.9,10.88,10.88,0,0,0,2.7-7.8A10.63,10.63,0,0,0,156.3,55.5Z" transform="translate(-0.7 -20.8)"/><path class="cls-2" d="M259.5,30.6V84.8H246.3V52.3L234.2,84.8H223.6L211.4,52.2V84.8H198.2V30.6h15.6L229,68.1l15-37.5Z" transform="translate(-0.7 -20.8)"/><path class="cls-2" d="M285.5,31l-18.6,7.8V29.7l18.6-8.9Zm-2.4,10.7v43H269.9v-43Z" transform="translate(-0.7 -20.8)"/><path class="cls-2" d="M293.6,51.5a18.93,18.93,0,0,1,6.8-7.7,17.85,17.85,0,0,1,9.6-2.7,16,16,0,0,1,8,1.9,13.26,13.26,0,0,1,5.3,4.9V41.8h13.2v43H323.3V78.7a15.1,15.1,0,0,1-5.4,4.9,17.18,17.18,0,0,1-8,1.9A17.78,17.78,0,0,1,293.5,75,25.81,25.81,0,0,1,291,63.3,27,27,0,0,1,293.6,51.5Zm27,4a8.85,8.85,0,0,0-6.7-2.9,9.07,9.07,0,0,0-6.7,2.8,10.88,10.88,0,0,0-2.7,7.8,10.88,10.88,0,0,0,2.7,7.8,8.85,8.85,0,0,0,6.7,2.9,9.17,9.17,0,0,0,6.7-2.9,10.88,10.88,0,0,0,2.7-7.8A10.63,10.63,0,0,0,320.6,55.5Z" transform="translate(-0.7 -20.8)"/></g><text class="cls-3" transform="translate(13.45 98.47)">Salón y Banquetes</text></svg>